<svg version="1.1" id="Layer_1" 
    xmlns="http://www.w3.org/2000/svg" 
    xmlns:xlink="http://www.w3.org/1999/xlink" x="0px" y="0px" viewBox="0 0 841.9 595.3" style="enable-background:new 0 0 841.9 595.3;" xml:space="preserve">
    <style type="text/css">
            .st0 {
                fill: #fff;
            }
    </style>
    <g>
        <path class="st0" d="M438.4,190.2L666.2,480c0,0,8.2,14.2,0,21c-8.2,6.7-25.5-9.7-40.5-24c-15-14.2-36-22.5-48-15.7
                                 c-12,6.7-20.2,12.7-31.5-7.5s-65.2-92.9-65.2-92.9s-18.7-14.2-15.7,7.5s51,107.9,51,107.9s8.2,12,0.7,18.7
                                 c-7.5,6.7-17.2-0.7-32.2-18c-15-17.2-46.5-53.2-46.5-53.2s-18-18-30,1.5c-12,19.5-27.7,43.5-27.7,43.5s-4.2,7.7-11.2,7.2
                                 c-7-0.5-11.5-15.5-13.5-47.5c-2-32,0.5-33.5,10.5-35c10-1.5,19.5-7,19.5-15s-12.5-31.5-28-52.5c-15.5-21-21.5-30.5-20.5-42
                                 s27-31,27-31s24.5-21.5,31.5-18c7,3.5,10,6.5,17.5,16c7.5,9.5,13,3.5,13,3.5s6.5-2.5-4.5-16.5c-11-14-20-43-20-43s-4-16.7,8.7-22.5
                                 C423.4,166.9,438.4,190.2,438.4,190.2z" />
        <polygon class="st0" points="639.7,250.3 629.3,237.9 618.8,250.2 581.9,293.3 424,105.2 413.6,92.8 403,105.1 270.7,260
                                         236.9,219.8 226.5,207.4 216,219.7 12.7,457.7 12.7,482.3 226.4,232.1 260.2,272.3 270.6,284.8 281.1,272.4 413.5,117.5
                                         571.4,305.6 581.8,318 592.3,305.7 629.2,262.6 809.3,477.2 809.3,452.3 	" />
        <path class="st0" d="M633.7,303.1c0,0,21.5,36,33.5,43c12,7,23,18.5,10.5,27.5c-12.5,9-23,19-34.5,7.5
                                 c-11.5-11.5-20.5-27.5-27.5-33.5s-14.4-25.7-8.4-34.7S625.8,290.7,633.7,303.1z" />
        <path class="st0" d="M234.9,285.9c0,0,21,14.2,16.5,25.9c-4.5,11.6-41.2,54.3-49.8,66.3c-8.6,12-15.7,22.1-23.2,17.6
                     c-7.5-4.5-4.5-28.9-4.5-28.9s1.1-13.9,11.6-20.2c10.5-6.4,11.6-10.9,11.6-16.9s-0.4-14.6,5.6-17.2c6-2.6,24.4,0.7,27.4-0.7
                     c3-1.5,6.4-6.8-2.6-13.7c-9-6.9-9.4-11.8-6.4-16.7C224,276.5,234.9,285.9,234.9,285.9z" />
    </g>
</svg>